<svg width="100" height="100" viewBox="0 0 100 100" fill="none" xmlns="http://www.w3.org/2000/svg">
<path d="M49.9997 82.8125C48.8192 82.8125 47.6733 82.5514 46.5622 82.0292C45.4511 81.5069 44.4789 80.7611 43.6455 79.7917L11.7705 41.6667C10.7289 40.4167 10.1039 38.9583 9.89555 37.2917C9.68721 35.625 9.96499 34.0625 10.7289 32.6042L18.5414 17.0833C19.3053 15.6944 20.3303 14.5833 21.6164 13.75C22.9025 12.9167 24.3414 12.5 25.933 12.5H74.058C75.6553 12.5 77.0969 12.9167 78.383 13.75C79.6692 14.5833 80.6928 15.6944 81.4539 17.0833L89.2664 32.6042C90.0303 34.0625 90.308 35.625 90.0997 37.2917C89.8914 38.9583 89.2664 40.4167 88.2247 41.6667L56.3497 79.7917C55.5164 80.7639 54.5442 81.5111 53.433 82.0333C52.3219 82.5555 51.1761 82.8153 49.9955 82.8125H49.9997ZM40.1039 33.3333H59.8955L53.6455 20.8333H46.3539L40.1039 33.3333ZM45.833 69.4792V41.6667H22.708L45.833 69.4792ZM54.1664 69.4792L77.2914 41.6667H54.1664V69.4792ZM69.1664 33.3333H80.208L73.958 20.8333H62.9164L69.1664 33.3333ZM19.7914 33.3333H30.833L37.083 20.8333H26.0414L19.7914 33.3333Z" fill="#E2C3AA"/>
</svg>
