<svg width="100" height="100" viewBox="0 0 100 100" fill="none" xmlns="http://www.w3.org/2000/svg">
<path d="M71.8749 12.5L67.3603 28.5208L58.3332 33.2354L67.3603 37.9479L71.8749 52.0833L76.3895 37.9458L85.4165 33.2333L76.3895 28.5229L71.8749 12.5ZM41.6665 25L39.5832 33.3333L33.3332 35.4167L39.5832 37.5L41.6665 45.8333L43.7499 37.5L49.9999 35.4167L43.7499 33.3333L41.6665 25ZM12.4999 62.5C12.4999 61.9475 12.7194 61.4176 13.1101 61.0269C13.5008 60.6362 14.0307 60.4167 14.5832 60.4167H20.8332C21.3857 60.4167 21.9156 60.6362 22.3063 61.0269C22.6971 61.4176 22.9165 61.9475 22.9165 62.5V85.4083C22.9165 85.9609 22.6971 86.4908 22.3063 86.8815C21.9156 87.2722 21.3857 87.4917 20.8332 87.4917H14.5832C14.0307 87.4917 13.5008 87.2722 13.1101 86.8815C12.7194 86.4908 12.4999 85.9609 12.4999 85.4083V62.5ZM36.8853 60.8104C38.827 59.925 43.5728 60.8104 43.5728 60.8104L57.377 63.9062C57.377 63.9062 60.829 65.0125 64.0645 65.0125C67.2999 65.0125 65.3645 69.4417 63.1999 70.9875C61.0374 72.5333 59.4624 72.45 59.4624 72.45L48.3165 72.3146C48.3165 72.3146 58.0249 74.0854 61.6915 74.3062C63.5478 74.4187 66.7332 73.1104 70.2957 71.65C73.7645 70.225 77.5874 68.6562 80.8874 68.1104C87.5749 67.0062 88.654 72.9792 86.4957 75.1917C84.3395 77.4042 67.0832 85.8104 64.0645 86.9167C61.6978 87.7833 58.8374 87.4958 55.6103 87.1708C54.7165 87.0812 53.7936 86.9875 52.8478 86.9167C49.077 86.6312 46.1978 85.7146 43.3478 84.8083C40.2895 83.8375 37.2665 82.8771 33.2186 82.7125C31.8603 82.6583 28.6811 82.8271 27.0832 82.9208V64.4583C29.8457 63.475 35.4395 61.4687 36.8853 60.8104Z" fill="#E2C3AA"/>
</svg>
