<svg width="100" height="100" viewBox="0 0 100 100" fill="none" xmlns="http://www.w3.org/2000/svg">
<path d="M20.833 79.1667H58.333V58.3333H79.1664V20.8333H20.833V79.1667ZM20.833 87.5C18.5414 87.5 16.5789 86.6833 14.9455 85.05C13.3122 83.4167 12.4969 81.4556 12.4997 79.1667V20.8333C12.4997 18.5417 13.3164 16.5792 14.9497 14.9458C16.583 13.3125 18.5441 12.4972 20.833 12.5H79.1664C81.458 12.5 83.4205 13.3167 85.0539 14.95C86.6872 16.5833 87.5025 18.5445 87.4997 20.8333V62.5L62.4997 87.5H20.833ZM29.1664 58.3333V50H49.9997V58.3333H29.1664ZM29.1664 41.6667V33.3333H70.833V41.6667H29.1664Z" fill="#E2C3AA"/>
</svg>
