<svg width="100" height="100" viewBox="0 0 100 100" fill="none" xmlns="http://www.w3.org/2000/svg">
<path d="M50.0001 41.6667L33.3334 18.3334L40.0001 8.33337H60.0001L66.6667 18.3334L50.0001 41.6667ZM64.5834 28.3334L59.5834 35.4167C68.7501 39.1667 75.0001 47.9167 75.0001 58.3334C75.0001 64.9638 72.3662 71.3226 67.6778 76.011C62.9893 80.6995 56.6305 83.3334 50.0001 83.3334C43.3697 83.3334 37.0108 80.6995 32.3224 76.011C27.634 71.3226 25.0001 64.9638 25.0001 58.3334C25.0001 47.9167 31.2501 39.1667 40.4167 35.4167L35.4167 28.3334C24.1667 33.75 16.6667 45 16.6667 58.3334C16.6667 67.1739 20.1786 75.6524 26.4299 81.9036C32.6811 88.1548 41.1595 91.6667 50.0001 91.6667C58.8406 91.6667 67.3191 88.1548 73.5703 81.9036C79.8215 75.6524 83.3334 67.1739 83.3334 58.3334C83.3334 45 75.8334 33.75 64.5834 28.3334Z" fill="#E2C3AA"/>
</svg>
